<?xml version="1.0" encoding="utf-8"?>
<!-- Generator: Adobe Illustrator 23.0.1, SVG Export Plug-In . SVG Version: 6.00 Build 0)  -->
<svg version="1.1" id="Ebene_3" xmlns="http://www.w3.org/2000/svg" xmlns:xlink="http://www.w3.org/1999/xlink" x="0px" y="0px"
	 viewBox="0 0 841.9 211.3" style="enable-background:new 0 0 841.9 211.3;" xml:space="preserve">
<style type="text/css">
	.st0{fill-rule:evenodd;clip-rule:evenodd;}
</style>
<g>
	<path class="st0" d="M191.1,144.1c-15.7-6.8-36.3-16.9-53.8-26.4c-6.3-3.4-12.1-6.4-17.5-8.9c10.6-1.3,18.8-4.9,23.8-9.4
		c5.1-4.6,7-10.3,5.5-16.2c-2.3-9.1-15.9-13.3-44.1-13.7c-18.7-0.3-36.5,1.4-37.2,1.4c-1.4,0.1-2.6,0.9-3.4,2s-1,2.6-0.5,3.9
		c0,0,0.5,1.4,1.2,3.9c-1.5-1-3.5-1-5.1,0c-2.1,1.4-2.6,4.3-1.1,6.3c0.1,0.2,12.8,18.5,20.4,38.1c0.3,0.9,0.6,1.8,0.8,2.6
		c0.9,2.8,1.7,5.2,2.2,6.8c0.3,0.8,0.5,1.5,0.7,2c1.6,4.7,5.4,3.7,5.9,3.5c1.3-0.4,4.1-1.8,2.7-6.6c-0.2-0.7-0.5-1.8-1-3.3
		c-0.8-2.7-1.8-5.4-2.8-8.1c-1.6-4.9-3.5-10.9-5.5-17.3c3.6,1.1,7.1,2,10.5,2.7c9.5,3.3,23.1,8.8,40.1,18.1
		c17.7,9.7,38.6,19.9,54.5,26.8c0.6,0.3,1.2,0.4,1.8,0.4c1.8,0,3.4-1,4.2-2.7C194.4,147.8,193.4,145.1,191.1,144.1z M95.1,98.7
		c-9.9-3.4-15.4-4.3-15.8-4.4c-0.1,0-0.2,0-0.3,0c-1.6-5-3.2-10-4.6-14.7c6.8-0.5,18.7-1.1,30.7-1c33.3,0.5,35.3,6.8,35.4,6.9
		c0.6,2.5-0.3,4.9-2.8,7.2C130.6,99,114.5,102.4,95.1,98.7z"/>
	<path class="st0" d="M203.3,99c-0.3-0.1-5.5-1.4-15.8-3L181,47.5c-0.3-2-1.8-3.5-3.7-3.9c-2-0.3-3.9,0.6-4.8,2.4
		c-20.6,40.5-18.8,60.6-18.7,61.4c0.3,2.5,2.5,4.3,4.9,4c2.5-0.2,4.3-2.5,4.1-4.9c0-0.1-0.1-1.5,0.1-4.4c6.3,0.6,11.8,1.2,16.5,1.8
		l4,30c0.3,2.3,2.3,3.9,4.5,3.9c0.2,0,0.4,0,0.6,0c2.5-0.3,4.2-2.6,3.9-5.1l-3.7-27.4c8.1,1.3,12.2,2.4,12.2,2.4
		c0.4,0.1,0.8,0.2,1.2,0.2c2,0,3.8-1.3,4.4-3.4C207.2,102.1,205.7,99.6,203.3,99z M164.3,93.1c1.5-7,4.3-16.7,9.7-29.2l4.1,30.7
		C174,94.1,169.4,93.6,164.3,93.1z"/>
	<path class="st0" d="M258.8,65.4c-15.2-11.1-42.1-4-43.2-3.7c-2.2,0.6-3.6,2.7-3.3,5c0.2,1.6,0.5,3.3,0.7,5.1
		c-1.2-1.3-3-1.8-4.7-1.3c-2.4,0.8-3.7,3.3-3,5.7c0.1,0.4,12.4,39.5,16.4,59.9c-3,1-6.3,2-9.8,3c-2.4,0.6-3.9,3.1-3.2,5.5
		c0.5,2,2.4,3.4,4.4,3.4c0.4,0,0.8,0,1.2-0.2c3.3-0.9,6.4-1.8,9.4-2.8c1.5,2.2,4,2,4.3,1.9c1-0.1,3.9-0.9,3.8-5
		c22.4-9.5,36.7-24.1,40-41.4C274.4,86.7,269.4,73.2,258.8,65.4z M262.9,98.8c-1.3,7-7.1,22.5-32.3,33.8c-0.1-0.9-0.2-1.8-0.4-2.7
		c-1-7.2-2.3-16.7-3.7-26.2c-1.9-13.7-3.9-27.4-4.8-34c8.4-1.6,23.5-2.8,31.6,3.1C261.2,78.5,264.9,88.4,262.9,98.8z"/>
	<path class="st0" d="M289.6,70.5c-2.5-0.5-4.8,1.1-5.3,3.6c-0.5,2.4-11.7,59.6-12.9,74.9c-0.2,2.5,1.7,4.7,4.1,4.9
		c0.1,0,0.3,0,0.4,0c2.3,0,4.3-1.8,4.5-4.2c1.2-14.8,12.7-73.3,12.8-73.9C293.7,73.4,292.1,71,289.6,70.5z"/>
	<path class="st0" d="M329.7,76c-3.4-10.5-10.5-11.2-13.4-11c-14.1,1-16.9,23.7-17.7,31.2c-1,8.4-1.2,16.6-1.2,21.7
		c-1.5,1.8-1.4,4.4,0.2,6c0.4,2.2,2.4,3.8,4.6,3.7c0,0,0,0,0,0c2.8,1.6,5.3,2.2,7.5,2.2c3,0,5.5-1.1,7.1-2.1
		C329.1,120.3,334.6,91.3,329.7,76z M312.1,120.2c-0.8,0.5-2.5,1.6-5.6-0.5c-0.4-22.2,3.5-45.1,10.5-45.6c1.7-0.1,3.1,1.5,4.1,4.7
		C325.1,91.3,319.9,115.3,312.1,120.2z"/>
	<path class="st0" d="M288.7,52.7c-2.8,0.8-4.5,3.4-3.9,5.8c0.7,2.3,3.6,3.6,6.4,2.7c2.8-0.8,4.5-3.4,3.9-5.8
		C294.4,53.1,291.6,51.9,288.7,52.7z"/>
</g>
<path d="M416.8,110.6l-3.6-1.5c-0.4-3.2-0.9-6.4-1.4-9.7c-2-13.9-3.8-25-5.5-33.1c-3.1-15.4-4.9-18.2-8.2-19.1
	c-2.1-0.6-4.2,0.2-5.5,2c-5.5,7.3-32.2,64-35.2,70.4c-1.1,2.3-0.1,5,2.2,6c2.3,1.1,5,0.1,6-2.2c2.9-6.2,6.3-13.3,9.7-20.5l29.6,12.5
	c1.4,10.6,2.8,21.7,4.1,32.5c0.3,2.3,2.2,4,4.5,4c0.2,0,0.4,0,0.5,0c2.5-0.3,4.3-2.5,4-5c0-0.2-1.4-12.2-3.4-27.6c0.2,0,0.3,0,0.5,0
	c1.8,0,3.4-1,4.2-2.8C420.1,114.3,419.1,111.6,416.8,110.6z M379.2,94.8c6.4-13.2,12.7-25.9,16.7-33.5c2.1,8.8,4.8,25,7.5,43.7
	L379.2,94.8z"/>
<path d="M433.4,155c-2.5,0-4.5-2-4.5-4.4l-2.8-106.5c-0.1-2.2,1.5-4.1,3.6-4.6c2.2-0.4,4.3,0.7,5.1,2.8c0.9,2.2,18,45.2,28,79.6
	c5.6-25.8,16.4-71.3,26.4-92.4c1.1-2.3,3.8-3.2,6-2.2c2.3,1.1,3.2,3.8,2.2,6C483.8,62,468,141.7,467.8,142.5
	c-0.4,2.1-2.3,3.6-4.4,3.7c-2.1,0-4-1.5-4.5-3.6c-4.5-20.5-15.2-50.9-23.1-72.2l2.1,80c0.1,2.5-1.9,4.6-4.4,4.7
	C433.5,155,433.4,155,433.4,155z"/>
<path d="M549.9,38.2c-2.2-1.2-5-0.3-6.1,1.9c-0.5,1-1.2,2.2-1.9,3.6c0,0,0,0,0,0c-0.4,0.7-0.8,1.5-1.2,2.3c-0.1,0.2-0.2,0.4-0.3,0.6
	c-0.2,0.1-0.4,0.2-0.6,0.3c-0.5,0.4-13.6,9-27.2,20.8c-18.9,16.3-29.2,30.3-30.7,41.5c-0.8,5.7,0.6,10.8,4.2,14.9
	c1.8,2.1,4.2,3.2,6.8,3.2c0.4,0,0.7,0,1.1-0.1c6.3-0.7,14.2-8.3,24.8-24.5c-7.1,14.4-14.7,26.7-22.7,36.7
	c-14.2,17.7-29.8,28.5-46.5,32.1c-18,3.9-37.1-0.4-56.8-12.7c-15-9.4-24.7-20.2-24.8-20.3c-1.7-1.9-4.5-2-6.4-0.4
	c-1.9,1.7-2,4.5-0.4,6.4c0.4,0.5,10.5,11.7,26.5,21.8c16.4,10.3,33.1,15.6,49.1,15.6c5,0,9.9-0.5,14.7-1.6
	c40.7-8.8,73.9-53.5,98.5-132.9c0.7-1.3,1.3-2.4,1.7-3.3C552.9,42.1,552.1,39.4,549.9,38.2z M493,118.3
	C493,118.3,493,118.3,493,118.3c-1.9-2.2-2.6-4.7-2.2-7.8c1.9-13.7,23.5-33.2,40.1-46c-4.7,8.6-10,18.2-15.5,26.9
	C499.8,116.7,493.8,118.2,493,118.3z"/>
<path d="M534.5,133c-0.4,0-0.9-0.1-1.3-0.2c-2.3-0.7-3.7-3-3.1-5.4c0.1-0.5,2.3-9.9,8.3-22.1c6.1-16,12.6-32.8,12.7-33
	c0.9-2.3,3.5-3.5,5.9-2.6c2.1,0.8,3.3,3,2.8,5.2c12.2-12.3,27-20.5,43.4-24.2c2.5-0.5,4.9,1,5.4,3.4c0.5,2.4-1,4.9-3.4,5.4
	c-32.3,7.3-50,32.2-58.7,50.2c-2.9,7.7-5.7,15.1-7.6,20.3C538.1,131.8,536.4,133,534.5,133z"/>
<path d="M579.2,126.1c-0.7,0-1.4,0-2-0.1c-7.7-0.8-12.9-5.9-14.5-14.4c-3.2-16.7,15.5-32,32.5-40c6.6-3.1,22.6-9.7,28.2-3
	c1.8,2.1,3,6-1.5,12.2c-14.6,20.1-41.7,22.7-49.7,23c-0.6,2-0.9,4-0.5,6.1c1.1,5.9,4.1,6.9,6.5,7.1c12.7,1.3,36.2-17.9,39.6-26
	c1-2.3,3.6-3.4,5.9-2.5c2.3,1,3.4,3.6,2.5,5.9C621.7,104.9,596.9,126.1,579.2,126.1z M614.9,74.6c-5.9,0.4-20.8,5.7-32.6,15.6
	c-1.2,1-2.6,2.3-4,3.8c10-1.4,26.6-5.7,36.1-18.7C614.6,75.1,614.8,74.9,614.9,74.6z"/>
<path d="M594.7,154.5c-0.9,0-1.9-0.3-2.7-0.9c-1.9-1.4-2.4-3.9-1.3-5.9c0.5-0.8,5.9-10.1,18.9-20.3c22.7-23.6,47.8-48.5,60.6-61
	c-10.6,1-18.2,3.4-23,5.5c-7,3-10,6.1-10,6.1c-1.7,1.8-4.6,1.8-6.4,0.1c-1.8-1.7-1.9-4.6-0.2-6.4c0.6-0.6,14.5-14.9,50.4-14.9
	c0.3,0,0.6,0,1,0c1.8,0,3.5,1.1,4.2,2.8c0.7,1.7,0.3,3.7-1.1,4.9c-0.3,0.3-22.3,21.6-47,46.5c11.8-4.7,26.1-8.5,43.4-10
	c2.5-0.2,4.7,1.6,4.9,4.1c0.2,2.5-1.6,4.7-4.1,4.9c-32.7,3-54.1,14.3-67.1,24.5c-6.1,6.3-11.9,12.5-17.3,18.4
	C597.2,154,596,154.5,594.7,154.5z"/>
<path d="M695.1,110c-2.2,0-4.2-1.7-4.5-4c-0.9-6.6,1.6-15.8,7.2-27.3c4-8.2,8.2-14.6,8.4-14.9c1.4-2.1,4.2-2.7,6.3-1.3
	c2.1,1.4,2.7,4.2,1.3,6.3c-4.4,6.7-15.5,26.1-14.2,36c0.3,2.5-1.4,4.8-3.9,5.1C695.5,110,695.3,110,695.1,110z"/>
<path class="st0" d="M722,47.5c-0.8-1.5-3.7-2.1-7.1-1c-3.4,1.1-3.8,4-2.9,6.9c1,2.9,3.3,2.9,6.7,1.8
	C722.1,54.2,723.7,50.7,722,47.5z"/>
</svg>
