<svg id="Ebene_1" data-name="Ebene 1" xmlns="http://www.w3.org/2000/svg" viewBox="0 0 1534.02 1496.42"><defs><style>.cls-1{fill:#1d1d1b;}</style></defs><path class="cls-1" d="M539.54,189.93c17.25,32.14,6.05,63.68-28.78,82.36l-46.88,25.15L408.05,193.36l46.88-25.14C489.76,149.53,522.22,157.65,539.54,189.93Zm-64.35,86.78,21.43-11.49c29.47-15.81,38.94-38.66,24.57-65.45S482.47,168.1,453,183.91l-21.43,11.5Z"/><path class="cls-1" d="M645.63,223.47c-40.89,9.36-72.85-9.67-80.76-44.19s12.55-65.72,53.44-75.08,73,9.63,80.94,44.3C707.16,183,686.52,214.1,645.63,223.47Zm-24-104.6c-27.85,6.38-42.34,30.28-36.5,55.76s29.25,40.55,57.1,34.17,42.49-30.32,36.69-55.65C673.12,127.66,649.67,112.45,621.67,118.87Z"/><path class="cls-1" d="M842.9,210.69l-24.3-1L752.47,109.4l-3.89,97.51-19.75-.79,4.72-118,24.3,1L824,189.39l3.9-97.51,19.75.79Z"/><path class="cls-1" d="M963.87,205.44,900.7,185.92,873.49,216.8l-20-6.19,87.16-96.68,31.08,9.61,17.4,129L968.9,246.3Zm-53.69-30.12,52,16.07L955,131.89l-5.08-1.57Z"/><path class="cls-1" d="M1022.51,140.31l105,57.34L1121.3,209l-44-24-50.42,92.31L1009.92,268l50.42-92.31-44-24Z"/><path class="cls-1" d="M1153.66,217.85l67.66,57.94-8.41,9.82-52.64-45.09-25.71,30L1184,312.86l-8.4,9.81-49.42-42.32-25.9,30.25,56,47.95-8.4,9.81-71-60.8Z"/><path class="cls-1" d="M1297.63,366.93l46.52,76-11,6.74-36.2-59.11-33.7,20.64,34,55.48-11,6.75-34-55.49-45,27.55L1196.9,428.6Z"/><path class="cls-1" d="M1267.33,575.52c-12.94-39.91,3.2-73.42,36.89-84.35s66.57,6.7,79.51,46.6-3.15,73.57-37,84.55S1280.27,615.43,1267.33,575.52Zm102.08-33.1c-8.81-27.19-33.9-39.5-58.77-31.44s-37.81,32.72-29,59.9c8.86,27.33,33.95,39.65,58.67,31.63C1365.19,594.44,1378.28,569.74,1369.41,542.42Z"/><path class="cls-1" d="M1412.16,700.44c2.09,36.42-7.12,53.55-28.82,54.79-18.06,1-27.58-13.63-28.76-34.12-.73,11.16-5.17,23.9-18.63,28.17-30.49,9.82-35.57,11.49-38.48,13.94l-1.18-20.49c2.91-2.45,8.75-4.16,35.24-12.07,13.17-4,17.57-12.13,16.13-37.17l-1.13-19.72-54,3.1-1.14-19.73,117.91-6.78Zm-51,2.93c1,18.21,5.8,32,21,31.07s18.17-15.05,17.12-33.26l-1.74-30.35L1359.43,673Z"/><path class="cls-1" d="M1367.85,984.32l-66.22-20.48c-32.52-10.06-43.07-33.06-32.11-68.49s32.65-48.45,65.18-38.39l66.22,20.48-5.84,18.88-66.22-20.48c-29.34-9.08-38.36,2.61-45,24s-5.75,36.09,23.58,45.16l66.22,20.49Z"/><path class="cls-1" d="M1186.47,1065.82l12.77-20.7,119.84-8.4-83-51.23,10.38-16.82,100.51,62-12.77,20.7-119.84,8.4,83,51.23L1287,1127.83Z"/><path class="cls-1" d="M1245.27,1174.73l-88.69-78,13-14.84,88.7,78Z"/><path class="cls-1" d="M1228.37,1196.47,1137,1273.63l-8.33-9.88L1167,1231.4,1099.11,1151l14.75-12.46,67.85,80.39L1220,1186.6Z"/><path class="cls-1" d="M1108.68,1290.73l-78.48,42.12-6.11-11.38,61.07-32.78-18.69-34.82-57.32,30.76-6.11-11.38,57.32-30.77-18.83-35.09-64.95,34.87-6.12-11.39,82.37-44.21Z"/><path class="cls-1" d="M859.68,1324.28c-9.52-35.21,8.53-63.4,46.68-73.71l51.35-13.89,30.83,114-51.36,13.89C899,1374.89,869.24,1359.64,859.68,1324.28Zm82.33-70-23.48,6.35c-32.28,8.73-46.68,28.84-38.74,58.19s30.54,39.6,62.83,30.88l23.47-6.35Z"/><path class="cls-1" d="M622.5,1253.91l27.62,4.43,13.94,101.08,44.74-91.66,27.61,4.43,21.06,123-20.86-3.34-16.05-109.12-47.89,98.85-23.87-3.83-14.54-108.87-49.39,98.61L564,1364.14Z"/><path class="cls-1" d="M524.85,1343.8l-80.46-38.22,5.55-11.67,62.6,29.74,17-35.7L470.74,1260l5.54-11.67L535,1276.28l17.09-36-66.59-31.63,5.54-11.67,84.44,40.11Z"/><path class="cls-1" d="M332.41,1151c-14.34-22.07-11.73-37.58-1-48.57,15.5-15.87,39.34-8.74,59.79,11.22,32.95,32.18,24.8,60.76,14.19,72.71l-18.71-10s25.65-21-5.67-51.63c-13.7-13.38-27.49-15.58-34.28-8.62-8,8.15-3.56,17.13,6,32.17l15.88,24.86c11.17,17.49,10.39,32.44.51,42.55-12.42,12.73-34,14.17-57.72-9-37-36.11-13.21-62.19-13.21-62.19l18.4,10.32s-19.47,16.89,6,41.74c11.42,11.15,23.59,13.26,30.59,6.08,6.27-6.41,3.48-14.66-3.85-25.85Z"/><path class="cls-1" d="M253.94,1144.31l-65.57-100,10.8-7.08,27.5,42,88-57.66,10.58,16.14-88,57.67,27.5,42Z"/><path class="cls-1" d="M156.18,966.1c-12.73-34.18-9-53.26,11.4-60.85,16.95-6.32,30.37,4.9,37.54,24.13-2.6-10.88-2.1-24.36,9.5-32.41,26.24-18.38,30.61-21.46,32.66-24.66l7.16,19.23c-2.05,3.19-7.13,6.55-30.11,21.92-11.42,7.66-13.22,16.77-4.46,40.27l6.9,18.52,50.7-18.89,6.9,18.51L173.7,1013.11ZM204,948.27c-6.36-17.09-14.95-28.81-29.19-23.51s-12.93,19.74-6.56,36.83l10.62,28.49,35.75-13.32Z"/><path class="cls-1" d="M127.41,871.52l-12.28-88.21,12.8-1.79,9.55,68.65,39.14-5.44-9-64.44,12.8-1.78,9,64.43,39.44-5.48-10.16-73,12.79-1.78,12.89,92.58Z"/><path class="cls-1" d="M201.42,652.28l-6.18,65.83L231,738.42l-2,20.88L116.61,693.78l3-32.38L242.35,618l-2,21ZM182.93,711,188,656.82l-56.77,19.25-.49,5.3Z"/><path class="cls-1" d="M183.58,444.71l11.67-28.07,109,45.36-7.59,18.25-90.09-37.48,72.23,80.42-9.93,23.86-108,5.46L251.05,590l-7.59,18.24-109-45.36,11.68-28.06L262,530.16Z"/><path class="cls-1" d="M389,335.57l-89.51,1.8.17-2.37-.26-2.36,89.52-1.58-.07,2.26Zm-1.12-8.25-88,1.55.65-5.5,86.4-1.62A13,13,0,0,1,387.89,327.32Zm-.23,16.45-86.93,1.74-.6-3.32,88-1.55A8.57,8.57,0,0,1,387.66,343.77Zm-1.76-25.12-84.14,1.47c.82-2.16,1.11-4,2.57-6.17L383,312.47C383.89,314.6,385.22,316.51,385.9,318.65ZM303,351.28l82.64-1.45-.92,2.92-80.59,1.73A18.54,18.54,0,0,1,303,351.28ZM381.76,310l-76.08,1.22a31.43,31.43,0,0,1,5.36-6.45l65.33-1.23A28.85,28.85,0,0,1,381.76,310Zm-1.83,51.42-70.28,1.11-1.75-1.91,73.18-1.27Zm-5.2-59.67-62.44,1.06a39,39,0,0,1,10.82-7.72l40.83-1A46.3,46.3,0,0,1,374.73,301.77ZM317.1,370.14,372.66,369l-1.49,1.11-52.55.88Zm45.32-76.85-37.83.71a40.65,40.65,0,0,1,18.63-4.22C350.1,289.65,356.78,290.6,362.42,293.29Zm-22.25,85.77,8.49-.26-3.76.39A14,14,0,0,1,340.17,379.06Z"/></svg>