<?xml version="1.0" encoding="utf-8"?>
<!-- Generator: Adobe Illustrator 25.2.3, SVG Export Plug-In . SVG Version: 6.00 Build 0)  -->
<svg version="1.1" id="Ebene_1" xmlns="http://www.w3.org/2000/svg" xmlns:xlink="http://www.w3.org/1999/xlink" x="0px" y="0px"
	 viewBox="0 0 1351.28 1351.28" style="enable-background:new 0 0 1351.28 1351.28;" xml:space="preserve">
<g>
	<path d="M367.15,192.18c8.5,14.82,21.83,22.02,37.01,13.31s15.69-23.85,7.2-38.67l-33.3-58.05l15.79-9.06l33.3,58.05
		c14.91,25.99,6.99,46.51-16.09,59.75c-22.83,13.1-44.4,9.81-59.28-15.55l13.56-14.07C365.33,187.89,365.89,190,367.15,192.18z"/>
	<path d="M522.73,169.13c-37,11.15-67.55-4.36-76.96-35.59c-9.45-31.37,7.45-61.17,44.45-72.32s67.68,4.32,77.13,35.68
		C576.76,128.14,559.73,157.99,522.73,169.13z M494.21,74.5c-25.2,7.59-37.03,30.46-30.08,53.51c6.91,22.92,29.4,35.45,54.6,27.85
		c25.33-7.63,37.16-30.5,30.25-53.42C542.04,79.39,519.55,66.86,494.21,74.5z"/>
	<path d="M647.68,145.46l-48.92,2.73l-6.07-108.61L638.81,37c33.55-1.88,49.31,6.64,50.27,23.83c1.18,21.11-22.02,24.93-22.02,24.93
		s26.22-0.06,27.68,26.08C695.89,132.39,681.23,143.58,647.68,145.46z M641.44,83.97c16.77-0.94,29.43-5.29,28.65-19.27
		c-0.78-13.98-13.84-16.75-30.61-15.82l-27.96,1.56l1.96,35.09L641.44,83.97z M616.26,135.29l30.75-1.72
		c16.77-0.94,29.43-5.29,28.57-20.67s-13.92-18.15-30.69-17.21l-30.75,1.72L616.26,135.29z"/>
	<path d="M784.81,93.99c22.59,8.83,28.96,21.84,26.82,35.82c-3.09,20.21-24.76,27.66-50.78,23.69
		c-41.93-6.4-51.17-32.17-49.64-46.81l19.37-2.57c0,0-7.91,29.52,31.95,35.61c17.44,2.66,28.94-3.09,30.29-11.94
		c1.58-10.38-6.53-14.73-21.74-20.88l-25.23-10.08c-17.75-7.1-25.18-18.72-23.22-31.59c2.47-16.19,17.86-28.85,48.03-24.25
		c47.05,7.19,43.26,39.46,43.26,39.46l-19.31,2.15c0,0,5.51-23.09-26.88-28.04c-14.53-2.22-24.78,2.73-26.17,11.87
		c-1.25,8.17,5.26,12.84,16.76,17.29L784.81,93.99z"/>
	<path d="M885.2,162.54l2.69,7.34l-1.43-3.17C885.75,165.28,885.48,164.23,885.2,162.54z M886.31,139.79l17.11,48.23l-1.39-0.98
		l-16-45.69L886.31,139.79z M912.13,192.2l-21.33-61.12l1.15-2.09l22.32,63.61L912.13,192.2z M898.72,121.98l25.21,71.83l-2.82,0.05
		l-24.87-69.96C896.99,123.33,897.91,122.37,898.72,121.98z M929.82,193.83l-26.71-75.5l2.73-1.49l26.86,76.5
		C931.94,193.61,930.88,193.88,929.82,193.83z M937.37,192.64l-27.5-77.74l2.12-0.54l1.99-0.91l27.32,77.8l-1.99,0.6L937.37,192.64z
		 M944.27,189.27l-26.86-76.5l4.99-1.02l26.46,75.06C947.69,187.96,946.13,188.61,944.27,189.27z M951.27,185.01l-25.67-73.13
		c2.13,0.09,3.82-0.19,6.14,0.46l24.09,68.34C954.22,182.08,952.94,183.8,951.27,185.01z M957.61,178.89l-23.11-66.17
		c2.64,0.64,5.1,1.67,7.19,2.82l20.01,56.76C960.73,174.33,959.64,176.61,957.61,178.89z M962.79,170.35l-19.03-54.28
		c3.54,1.69,7.09,4.32,9.89,7.22l12.69,35.41C965.79,162.79,964.54,166.38,962.79,170.35z M966.63,157.14l-11.58-32.86
		c4.2,4.19,7.11,9.15,9.09,15.06C966.24,145.31,967.35,151.43,966.63,157.14z"/>
	<path d="M1038.86,231.9c-11.45,12.68-14.15,27.58-1.16,39.31c12.99,11.73,27.54,7.51,38.99-5.16l44.84-49.67l13.51,12.2
		l-44.84,49.67c-20.08,22.24-42.04,21.08-61.79,3.26c-19.54-17.64-23.11-39.16-3.62-61.17l17.58,8.52
		C1042.37,228.85,1040.55,230.03,1038.86,231.9z"/>
	<path d="M1109.22,372.59c-22.16-31.65-16.99-65.52,9.73-84.23c26.84-18.79,60.43-12.06,82.59,19.59
		c22.16,31.65,17.07,65.64-9.77,84.42C1165.06,411.09,1131.39,404.24,1109.22,372.59z M1190.19,315.91
		c-15.1-21.56-40.51-25.64-60.24-11.83c-19.61,13.73-24.47,39.01-9.38,60.57c15.18,21.68,40.59,25.76,60.2,12.03
		C1200.51,362.86,1205.37,337.58,1190.19,315.91z"/>
	<path d="M1170.85,483.84l-17.9-45.61l101.26-39.73l16.88,43.01c12.27,31.28,9.11,48.91-6.92,55.2
		c-19.68,7.72-30.56-13.12-30.56-13.12s8.26,24.88-16.11,34.44C1198.34,525.54,1183.12,515.12,1170.85,483.84z M1170.68,450.82
		l11.25,28.67c6.13,15.64,14.23,26.3,28.56,20.67c14.34-5.62,12.89-18.89,6.75-34.53l-11.25-28.67L1170.68,450.82z M1227.3,458.68
		c6.13,15.64,14.23,26.3,27.26,21.19c13.03-5.11,11.59-18.38,5.45-34.02l-10.23-26.06l-32.71,12.83L1227.3,458.68z"/>
	<path d="M1262.31,598.21c-1.41,24.21-11.81,34.29-25.76,36.58c-20.17,3.32-33.96-14.99-38.23-40.96
		c-6.88-41.86,14.76-58.61,29.15-61.69l8.43,17.62c0,0-30.52,1.62-23.98,41.4c2.86,17.41,11.89,26.56,20.73,25.11
		c10.36-1.7,11.99-10.77,13.13-27.13l1.78-27.11c1.26-19.08,10.01-29.74,22.85-31.85c16.16-2.66,32.96,8.06,37.92,38.17
		c7.72,46.97-24.14,53.34-24.14,53.34l-8.02-17.69c0,0,23.66-1.91,18.35-34.23c-2.39-14.5-10.26-22.71-19.38-21.21
		c-8.15,1.34-10.58,8.98-11.25,21.29L1262.31,598.21z"/>
	<path d="M1208.64,749.75l51.36-39.41l2.34,0.44l-53.42,41.12L1208.64,749.75z M1250.32,708.82l-40.45,31.36l0.49-1.63l38.38-29.51
		L1250.32,708.82z M1271.12,715.02l-60.31,46.45l-0.93-2.66l58.64-45.53C1269.3,713.8,1270.5,714.37,1271.12,715.02z
		 M1212.63,767.06l63.33-49.02l2.27,2.13l-64.23,49.47C1213.51,769.01,1212.92,768.09,1212.63,767.06z M1216.13,773.87l65.21-50.48
		l1.18,1.84l1.49,1.6l-65.33,50.32l-1.19-1.71L1216.13,773.87z M1221.49,779.36l64.23-49.47l2.54,4.42l-63,48.64
		C1223.81,782.19,1222.7,780.92,1221.49,779.36z M1228.37,714.89l-6.13,4.86l2.56-2.35
		C1225.93,716.27,1226.86,715.68,1228.37,714.89z M1227.72,784.67l61.41-47.29c0.58,2.05,1.38,3.56,1.49,5.98l-57.35,44.29
		C1231.43,786.56,1229.4,785.88,1227.72,784.67z M1235.52,788.78l55.6-42.68c0.22,2.71,0.02,5.37-0.43,7.71l-47.64,36.78
		C1240.83,790.31,1238.33,789.99,1235.52,788.78z M1245.26,791.02l45.58-35.07c-0.5,3.89-1.89,8.09-3.76,11.66l-29.65,23.15
		C1253.38,791.5,1249.58,791.44,1245.26,791.02z M1259.01,790.53l27.58-21.3c-2.66,5.3-6.46,9.62-11.46,13.35
		C1270.12,786.45,1264.66,789.42,1259.01,790.53z"/>
	<path d="M1210.58,882.59c-15.61-6.93-30.62-4.86-37.72,11.13s1.44,28.51,17.05,35.44l61.17,27.15l-7.38,16.63l-61.16-27.15
		c-27.38-12.15-33.12-33.39-22.33-57.7c10.68-24.06,30.02-34.16,57-22.49l-2.62,19.36C1214.58,884.97,1212.89,883.61,1210.58,882.59
		z"/>
	<path d="M1098.71,993.17c23.22-30.88,57.02-36.47,83.09-16.86c26.18,19.69,30.2,53.71,6.98,84.59
		c-23.22,30.88-57.11,36.58-83.29,16.89C1079.42,1058.19,1075.49,1024.05,1098.71,993.17z M1177.71,1052.57
		c15.82-21.04,11.82-46.46-7.43-60.94c-19.13-14.39-44.67-11.17-60.49,9.87c-15.9,21.15-11.9,46.58,7.23,60.96
		C1136.27,1076.94,1161.81,1073.72,1177.71,1052.57z"/>
	<path d="M1012.1,1086.35l37.76-31.23l69.32,83.82l-35.6,29.44c-25.89,21.41-43.63,23.91-54.6,10.64
		c-13.47-16.29,2.94-33.13,2.94-33.13s-21.06,15.61-37.75-4.57C981.05,1125.47,986.21,1107.76,1012.1,1086.35z M1043.41,1075.89
		l-23.73,19.63c-12.95,10.71-20.55,21.72-10.74,33.59c9.81,11.87,21.97,6.36,34.91-4.35l23.73-19.63L1043.41,1075.89z
		 M1053.6,1132.14c-12.95,10.71-20.55,21.72-11.63,32.51c8.92,10.79,21.08,5.28,34.02-5.43l21.58-17.84l-22.39-27.08L1053.6,1132.14
		z"/>
	<path d="M932.08,1209.03c-23.43,6.25-36.27-0.47-42.82-13c-9.47-18.11,3.59-36.95,26.91-49.15c37.59-19.66,60.29-4.35,67.72,8.35
		l-14.1,13.53c0,0-11.1-28.48-46.83-9.79c-15.63,8.18-21.5,19.62-17.35,27.56c4.87,9.31,13.99,8.01,29.88,3.97l26.3-6.8
		c18.51-4.78,31.38,0.18,37.41,11.72c7.59,14.52,2.68,33.83-24.37,47.97c-42.18,22.06-58.23-6.21-58.23-6.21l14.29-13.16
		c0,0,9.23,21.88,38.26,6.69c13.03-6.81,18.36-16.87,14.07-25.05c-3.83-7.32-11.84-7.24-23.75-4.02L932.08,1209.03z"/>
	<path d="M742.54,1242.87l57.79,39.65c-2.51,1.04-5.1,1.68-7.46,1.98l-49.72-33.91C742.73,1248.39,742.26,1245.91,742.54,1242.87z
		 M744.04,1234.18l63.98,43.76c-1.77,1.19-2.96,2.41-5.22,3.27l-59.86-40.83C743.39,1238.29,743.41,1236.15,744.04,1234.18z
		 M743.43,1252.81l47.46,32.49c-3.85,0.73-8.27,0.71-12.25,0.04l-31.19-21.03C745.48,1260.69,744.37,1257.05,743.43,1252.81z
		 M747.16,1226.61l66.92,45.76l-3.42,3.78l-65.75-44.85C745.18,1229.69,746.05,1228.24,747.16,1226.61z M748.15,1265.74l28.79,19.63
		c-5.87-0.89-11.14-3.17-16.24-6.76C755.47,1275.04,750.95,1270.77,748.15,1265.74z M750.72,1219.81l68.18,46.38l-1.39,1.69
		l-1.06,1.91l-68.07-46.55l1.25-1.66L750.72,1219.81z M756.11,1214.37l66.22,45.04l-1.32,2.81l-66.92-45.76
		C754.53,1215.81,755.22,1214.97,756.11,1214.37z M823.7,1253.88l-62.83-42.98l2.24-1.71l61.45,41.67
		C824.3,1251.78,824.12,1253.09,823.7,1253.88z M771.33,1205.23l53.37,36.64l0.3,2.36l-55.63-38.07L771.33,1205.23z M823.16,1232.19
		l-42.33-28.76l1.7-0.04l39.94,27.36L823.16,1232.19z M810.59,1213.19l-6.52-4.32l3.03,1.71
		C808.53,1211.3,809.37,1212,810.59,1213.19z"/>
	<path d="M645.7,1248.3c1.69-17-4.97-30.6-22.39-32.34c-17.41-1.73-26.63,10.29-28.32,27.29l-6.63,66.59l-18.11-1.8l6.63-66.59
		c2.97-29.81,21.34-41.91,47.81-39.28c26.19,2.61,41.84,17.81,39.21,47.1l-19.21,3.58C644.69,1252.84,645.45,1250.8,645.7,1248.3z"
		/>
	<path d="M505.67,1176.68c36.59,12.42,52.46,42.78,41.98,73.68c-10.53,31.02-41.6,45.47-78.19,33.05
		c-36.59-12.41-52.59-42.83-42.07-73.85C437.87,1178.67,469.08,1164.27,505.67,1176.68z M473.91,1270.29
		c24.93,8.46,47.83-3.29,55.57-26.09c7.69-22.67-3.34-45.93-28.27-54.39c-25.06-8.5-47.97,3.24-55.66,25.91
		C437.82,1238.53,448.85,1261.79,473.91,1270.29z"/>
	<path d="M390.23,1123.38l41.4,26.21l-58.19,91.91l-39.04-24.71c-28.39-17.97-36.26-34.06-27.05-48.61
		c11.31-17.86,32.41-7.48,32.41-7.48s-21.37-15.19-7.37-37.31C343.4,1106,361.84,1105.41,390.23,1123.38z M359.57,1177.04
		c-14.19-8.99-27.02-12.8-34.51-0.97c-7.49,11.83,1.52,21.68,15.72,30.66l23.66,14.98l18.8-29.69L359.57,1177.04z M409.88,1149.91
		l-26.02-16.48c-14.19-8.99-27.02-12.8-35.26,0.21c-8.24,13.01,0.77,22.86,14.97,31.84l26.02,16.48L409.88,1149.91z"/>
	<path d="M248.77,1085.4c-13.22-20.33-10.83-34.62-0.95-44.74c14.27-14.63,36.23-8.07,55.08,10.31
		c30.37,29.62,22.87,55.95,13.11,66.96l-17.24-9.19c0,0,23.62-19.4-5.24-47.56c-12.63-12.32-25.33-14.34-31.58-7.92
		c-7.33,7.52-3.27,15.78,5.52,29.63l14.64,22.89c10.3,16.11,9.58,29.88,0.49,39.2c-11.44,11.73-31.32,13.06-53.17-8.25
		c-34.07-33.24-12.2-57.27-12.2-57.27l16.95,9.49c0,0-17.92,15.57,5.53,38.44c10.52,10.27,21.73,12.21,28.19,5.59
		c5.77-5.91,3.2-13.51-3.56-23.82L248.77,1085.4z"/>
	<path d="M137.45,928.46l-9.63,33.49c-1-5.85-0.48-11.57,1.33-17.54C130.91,938.33,133.56,932.7,137.45,928.46z M148.25,919.93
		l-15.99,55.25c-1.9-3.43-3.26-7.63-3.87-11.62l10.2-36.21C141.42,924.35,144.52,922.15,148.25,919.93z M157.42,915.97l-19.55,67.31
		c-1.78-2.06-3.19-4.32-4.22-6.47l16.63-57.85C152.24,917.88,154.44,916.66,157.42,915.97z M166.14,914.67l-21.51,74.47
		c-1.68-1.31-3.22-2.06-4.74-3.94l20.02-69.65C162.03,915.34,164.07,914.69,166.14,914.67z M174.31,915.26l-22.5,77.9l-4.66-2.06
		l21.99-76.5C170.77,914.35,172.41,914.72,174.31,915.26z M181.89,916.51L159.2,995.8l-2.04-0.79l-2.15-0.41l22.88-79.23l1.97,0.67
		L181.89,916.51z M188.73,919.93l-22.03,77l-3.09-0.37l22.5-77.9C186.87,918.87,187.89,919.27,188.73,919.93z M172.39,996.5
		l21.13-73.14l2.32,1.6l-20.32,71.41C174.58,996.41,173.27,996.65,172.39,996.5z M202.19,931.52l-18.08,62.17l-2.15,1.03
		l18.72-64.77L202.19,931.52z M192.82,989.19l14.05-49.22l0.57,1.61l-13.47,46.5L192.82,989.19z M206.93,971.3l2.07-7.54l-0.67,3.41
		C208.07,968.75,207.68,969.77,206.93,971.3z"/>
	<path d="M122.04,825.65c16.69-3.65,27.56-14.21,23.82-31.3s-18.03-22.14-34.72-18.48l-65.37,14.32l-3.89-17.78l65.37-14.32
		c29.27-6.41,46.46,7.31,52.15,33.29c5.63,25.71-3.98,45.3-32.64,51.87l-9.35-17.16C117.41,826.09,119.58,826.19,122.04,825.65z"/>
	<path d="M146.72,670.35c-0.63,38.63-24.69,63.03-57.3,62.5c-32.76-0.53-56.01-25.69-55.38-64.33
		c0.63-38.64,24.69-63.17,57.45-62.64C124.1,606.41,147.35,631.72,146.72,670.35z M47.89,668.75
		c-0.43,26.32,17.76,44.54,41.84,44.93c23.94,0.39,42.71-17.23,43.13-43.55c0.43-26.46-17.76-44.68-41.69-45.06
		C67.09,624.67,48.32,642.29,47.89,668.75z"/>
	<path d="M161.2,543.89l-11.93,47.53L43.77,564.94l11.24-44.81c8.18-32.59,20.99-45.11,37.69-40.92
		c20.5,5.15,17.26,28.44,17.26,28.44s7.73-25.05,33.12-18.68C163.05,493.98,169.38,511.3,161.2,543.89z M100.64,531.58
		c4.09-16.29,3.69-29.67-9.89-33.08c-13.58-3.41-20.11,8.23-24.2,24.53l-6.81,27.16l34.08,8.55L100.64,531.58z M142.17,570.87
		l7.5-29.87c4.09-16.29,3.69-29.67-11.24-33.42s-21.47,7.89-25.55,24.19l-7.5,29.87L142.17,570.87z"/>
	<path d="M153.17,397.67c15.21-18.89,29.53-21.06,42.22-14.82c18.35,9.01,18.94,31.93,7.34,55.55
		c-18.71,38.07-46.06,39.14-59.56,33.29l3.37-19.25c0,0,25.79,16.41,43.57-19.78c7.78-15.83,5.75-28.53-2.29-32.48
		c-9.42-4.63-16.02,1.8-26.45,14.46l-17.2,21.03c-12.11,14.8-25.42,18.4-37.1,12.66c-14.7-7.22-22.16-25.7-8.7-53.1
		c20.99-42.72,50.64-29.41,50.64-29.41l-3.75,19.06c0,0-20.37-12.19-34.82,17.21c-6.48,13.19-4.84,24.45,3.45,28.53
		c7.41,3.64,13.83-1.16,21.53-10.79L153.17,397.67z"/>
	<path d="M292.96,281.64l-82.41,3.07l0.12-2.18l-0.28-2.17l82.41-2.87l-0.02,2.08L292.96,281.64z M291.8,274.06l-81.03,2.82
		l0.51-5.07l79.54-2.86C291.57,270.4,291.73,272.08,291.8,274.06z M291.85,289.21l-80.03,2.98l-0.61-3.05l81.03-2.82
		C292.27,287.12,292.21,288.21,291.85,289.21z M289.83,266.1l-77.47,2.69c0.72-2.01,0.96-3.7,2.27-5.73l72.42-2.61
		C287.91,262.41,289.16,264.15,289.83,266.1z M213.99,297.46l76.08-2.64l-0.79,2.7l-74.19,2.87
		C214.75,299.52,214.12,298.35,213.99,297.46z M285.88,258.22l-70.05,2.32c1.4-2.33,3.11-4.37,4.84-6.02l60.15-2.17
		C282.45,253.89,284.3,255.6,285.88,258.22z M285.01,305.6l-64.71,2.13l-1.65-1.72l67.37-2.33L285.01,305.6z M279.27,250.73
		l-57.48,1.97c2.67-2.87,6.24-5.48,9.84-7.29l37.59-1.55C272.94,245.61,275.99,247.88,279.27,250.73z M227.28,314.62l51.14-1.94
		l-1.35,1.04l-48.38,1.64L227.28,314.62z M267.8,243.12l-34.82,1.25c5.25-2.76,10.85-4.06,17.09-4.18
		C256.39,239.97,262.56,240.74,267.8,243.12z M248.67,322.46l7.81-0.38l-3.45,0.42C251.45,322.76,250.36,322.7,248.67,322.46z"/>
</g>
</svg>
