<?xml version="1.0" encoding="utf-8"?>
<!-- Generator: Adobe Illustrator 16.0.4, SVG Export Plug-In . SVG Version: 6.00 Build 0)  -->
<!DOCTYPE svg PUBLIC "-//W3C//DTD SVG 1.1//EN" "http://www.w3.org/Graphics/SVG/1.1/DTD/svg11.dtd">
<svg version="1.1" id="Layer_1" xmlns="http://www.w3.org/2000/svg" xmlns:xlink="http://www.w3.org/1999/xlink" x="0px" y="0px"
	 width="566.93px" height="850.391px" viewBox="0 0 566.93 850.391" enable-background="new 0 0 566.93 850.391"
	 xml:space="preserve">
<g enable-background="new    ">
	<path d="M530.469,504.64v74.9H492.72v37.749h-37.15v37.15H380.67v37.749h-37.75v37.15H227.275v-37.15h-37.15v-37.749h-74.9v-37.15
		H77.476V579.54h-37.15v-74.9H2.576V314.095h37.75v-74.9h37.15v-37.15h37.749v-37.75h74.9v-37.15H380.67v37.15h74.899v37.75h37.15
		v37.15h37.749v74.9h37.15V504.64H530.469z M526.874,317.69h-37.15v-74.9h-37.749v-37.75h-74.9v-37.15H193.121v37.15h-74.9v37.75
		h-37.15v74.9H43.322v183.953h37.749v74.9h37.15v37.15h71.904V542.39h-37.75v-37.75h-37.15v-40.745h40.746v37.749h221.104v-37.749
		h37.75v-37.15h40.745v40.745H417.82v37.15h-37.15v109.055h71.305v-37.15h37.749v-74.9h37.15V317.69z M115.225,354.841v-40.746
		h37.15v-37.15h40.746v37.15h37.75v40.746H115.225z M190.125,429.74v-40.746h115.646v40.746H190.125z M339.924,542.39h-34.153
		v112.05h-40.746V542.39h-34.154v146.204h109.053V542.39z M302.175,354.841v-40.746h37.749v-37.15h40.746v37.15h37.15v40.746
		H302.175z"/>
</g>
</svg>
