<?xml version="1.0" encoding="utf-8"?>
<!-- Generator: Adobe Illustrator 23.0.1, SVG Export Plug-In . SVG Version: 6.00 Build 0)  -->
<svg version="1.1" id="Layer_1" xmlns="http://www.w3.org/2000/svg" xmlns:xlink="http://www.w3.org/1999/xlink" x="0px" y="0px"
	 viewBox="0 0 1844.7 727.1" style="enable-background:new 0 0 1844.7 727.1;" xml:space="preserve">
<path d="M721.8,347.6c6.3-26.4,18.5-50.5,28.1-75.6c9.2-24,19.3-47.7,28.9-71.6c9.7-24,19.3-48,28.9-72.1c2.4-6,4.3-12.3,7.3-18.1
	c5.5-10.7,17.4-12.5,28.9-5.8c9.8,5.7,13.7,15.4,15.8,26.1c4.9,24.4,10,48.7,15,73c4.6,22.5,9.1,44.9,13.6,67.4
	c1.8,9.1,3.7,18.3,5.3,27.5c0.6,3.1,1.8,5,5,5.7c3.7,0.8,7.3,1.9,11,3c5.7,1.7,10.5,8.5,10.1,13.8c-0.5,6.2-7.8,13.4-13.8,13.7
	c-1.5,0.1-2.9,0.2-5,0.3c1.8,9.6,3.6,18.8,5.3,28c3.5,18.8,7,37.6,10.5,56.4c3.5,18.5,7,36.9,10.4,55.4c2.6,14.1,5,28.3,7.6,42.5
	c3.2,17.7,6.3,35.4,9.8,53.1c2,10-5,20.3-15,19.9c-3.5-0.1-8.6-3.5-9.9-6.7c-3.2-8.1-5.1-16.8-6.8-25.3c-3.6-18.1-6.8-36.2-10-54.4
	c-3.4-19.3-6.6-38.6-10.1-57.9c-3.4-18.6-7.1-37.1-10.7-55.7c-3.1-16.3-6.2-32.7-9.2-49c-0.4-2,0-4.1-0.1-6.2
	c-0.5-7.6-3.1-12.5-11.4-15.5c-28.2-10.3-56.1-21.7-84.1-32.7c-0.4-0.2-1-0.1-2.1-0.3c-2.9,7.3-6,14.7-8.9,22.1
	c-5.9,14.8-11.8,29.5-17.6,44.3c-2.4,6.2-7,10-13.1,10.5c-6.6,0.5-10.9-4.1-13.8-9.8C721.8,351.6,721.8,349.6,721.8,347.6z
	 M862.1,289.1c-9.4-49.2-18.6-97.3-27.9-145.4c-0.5-0.1-1-0.2-1.5-0.3c-15.7,38.9-31.4,77.8-47.1,116.8
	C811,269.8,836,279.2,862.1,289.1z"/>
<path d="M681.3,368.3c6.8,3.1,10.9,8.1,9.9,15.9c-0.4,2.7-1.9,5.5-3.3,7.9c-1.9,3.3-10.2,6.7-13.3,5.9c-7.2-2-10.6-5.6-11.2-12.3
	c-0.9-9.3,1.3-13.1,10-17.4C675.9,368.3,678.6,368.3,681.3,368.3z"/>
<path d="M1289.6,105.9c2.3-14.4,4.7-29.8,7.1-45.1c1.8-11.8,3.4-23.6,5.1-35.4c0.7-4.7,1.2-9.4,2.2-14c2-9.3,10.2-13.3,20.6-10.4
	c9.6,2.7,13.2,10.9,10.1,20.4c-1.8,5.4-2,11.2-2.9,16.9c-1.6,11-3.3,22-4.8,33c-1.2,9.1-2.1,18.3-3.3,27.4
	c-1.3,10.3-2.7,20.5-3.8,30.7c-0.9,8.4-1.6,16.7-2.1,25.1c-1.1,17.3-2,34.6-3,52c-0.7,11.4-1.4,22.8-2,34.1c-1,19.3-2,38.7-3,58
	c-0.6,10.1-1.1,20.1-2,30.1c-1.1,12.8-2.2,25.6-4,38.3c-3,21.7-6,43.5-10.1,65c-6,31-15.5,61-28.5,90c-10,22.2-22.4,42.9-37.4,61.9
	c-19.3,24.4-42.3,44.9-69.4,60.5c-22,12.7-45.2,22.4-70.2,26.9c-18.1,3.3-36.6,4.4-54.9,3.1c-20.7-1.5-40.7-6.4-59.4-15.8
	c-13.9-7-26.2-16.4-37.5-27.1c-3.6-3.4-6.6-7.7-9.1-12.1c-4.3-7.5-0.8-19.6,11.3-19.9c4.4-0.1,8.1,0.7,11.9,3.6
	c5.2,3.9,8.8,9,13.2,13.4c4.7,4.7,10.2,8.8,15.9,12.2c15.1,8.8,31.5,14.2,48.7,16.8c1.8,0.3,3.7,0,6.9,0
	c-9.7-3.5-11.2-10.3-11.5-18.2c-0.7-18-1.9-35.9-2.9-53.9c-0.6-9.9-1.4-19.7-2-29.6c-1-17.5-2-34.9-3-52.4c-0.6-9.7-1.4-19.4-2-29.1
	c-1.1-17.6-2-35.3-3-52.9c-0.6-9.5-1.4-19.1-2-28.6c-1.1-17.5-2-34.9-3-52.4c-0.6-9.4-1.4-18.7-1.9-28.1c-1.1-17.6-2-35.3-3.1-52.9
	c-0.6-9.4-1.4-18.7-1.9-28.1c-1.1-17.6-2-35.3-3.1-52.9c-0.6-9.2-1.4-18.4-1.9-27.6c-1.1-18.1-2-36.3-3.1-54.4
	c-0.5-8.9-1.4-17.7-1.9-26.6c-0.3-4.8-1.1-10,0.2-14.5c2.8-10.4,14.8-14.5,23.8-8.5c1.9,1.3,3.4,4.1,3.9,6.4
	c2,8.7,3.3,17.6,5.1,26.4c4.4,20.9,8.9,41.9,13.3,62.8c4.2,20.1,8.5,40.3,12.6,60.4c3.9,19.1,7.8,38.2,11.6,57.3
	c3.9,19.9,7.6,39.8,11.4,59.8c3.9,20.4,7.8,40.8,11.6,61.2c2.6,14,4.9,28,7.4,42c3,16.7,6,33.4,9,50.2c0.5,0,0.9,0.1,1.4,0.1
	c0.9-4.9,1.9-9.8,2.6-14.7c2.4-15.6,4.7-31.2,6.9-46.9c1.8-12.5,3.3-25,5.1-37.5c1.8-11.8,3.9-23.5,5.8-35.3
	c1.5-9.7,2.7-19.4,4.2-29.1c2.2-14.7,4.7-29.4,6.9-44.1c1.8-12,3.4-24,5.1-36c2.3-15.4,4.7-30.7,6.9-46.1
	c1.5-10.7,2.7-21.5,4.1-32.2c1.5-11.2,3.2-22.3,4.8-33.5c1.2-8.6,2.2-17.2,3.2-25.9c1-8.5,1.8-16.9,3.1-25.4
	c0.9-5.8,7.2-10.6,12.7-10.2c9.6,0.8,16.2,5.6,16,12.7c-0.2,7-1.4,14-2.3,21c-1.1,8.6-2.4,17.2-3.6,25.8
	c-1.6,11.4-3.1,22.7-4.6,34.1c-1.1,8.5-2.2,16.9-3.4,25.4c-1.4,10.5-2.8,21.1-4.3,31.6c-1.5,10.5-3.1,21-4.7,31.5
	c-1.9,12.8-3.8,25.6-5.7,38.4c-1.5,9.9-2.9,19.8-4.3,29.7c-1.8,12.1-3.7,24.3-5.6,36.4c-1.8,11.5-3.6,23-5.4,34.4
	c-2.2,13.7-4.4,27.5-6.6,41.2c-2.1,13.3-4.2,26.5-6.4,39.8c-2.1,12.9-4.2,25.8-6.4,38.7c-2.2,12.9-4.4,25.8-6.6,38.7
	c-1.7,9.8-3.4,19.7-5.2,29.5c-1.8,9.8-16.8,11.9-22.6,6.1c-5.3-5.3-6-11.8-7.1-18.3c-3.1-17.8-6-35.7-9-53.6c-3-18-6-36.1-9.1-54.1
	c-2.8-15.9-6-31.7-8.7-47.6c-2.3-13.7-4-27.5-6.3-41.1c-2.2-13-4.8-26-7.3-39c-3.2-16.7-6.4-33.4-9.7-50c-0.6-3.3-1.6-6.4-3-9.4
	c0,5.7-0.3,11.5,0.1,17.2c0.4,7.1,1.4,14.1,1.9,21.2c0.5,8.3,0.5,16.6,1.1,24.8c1.2,18.6,2.6,37.2,3.9,55.8c0.4,5.8,0.7,11.6,1,17.3
	c0.7,14,1.3,28.1,2,42.1c0.9,16.8,2,33.7,3,50.5c0.6,10.4,1.3,20.8,2,31.1c1,16.7,2,33.3,3,50c0.7,10.9,1.3,21.8,2,32.6
	c0.9,13.3,2.2,26.6,2.9,40c0.5,9.8-2.8,13.3-12.7,15.6c-0.4,0.1-0.8,0.4-1.8,1c4.3,3,8.6,1.6,12.6,1.6c1.1,0,2.2-0.7,3.4-0.7
	c19.1-0.9,37.5-5.1,55.5-11c21.2-7,40.1-18.1,57.5-31.9c32.7-25.9,55.9-59,72.5-96.7c7-15.9,11.6-32.8,18.2-48.9
	c7.4-18.2,9.8-37.5,13.6-56.5c2.2-10.9,2.8-22.1,4.3-33.2c0.5-3.6,1.2-7.1,1.7-10.7c0.2-1.3,0-2.7,0-4c-0.4-0.1-0.9-0.1-1.3-0.2
	c-2.5,8-4.9,16-7.5,23.9c-6.1,19-11.6,38.2-23,55c-8.2,12-25.8,16.3-39.1,10.8c-15.9-6.6-21-20.1-23.7-34.8c-1.8-10-2.4-20.4-2-30.5
	c0.5-13.3,1.9-26.5,3.9-39.7c2.5-17.1,5.3-34.2,9-51.1c5.5-24.9,14.1-48.7,24.1-72.1c11.2-26.1,24.8-50.7,40.8-74.1
	c6.6-9.7,13.6-19.2,20.9-28.4C1281.8,109.8,1285.7,108.4,1289.6,105.9z M1284,156.1c-1.6,1.5-2.2,1.8-2.6,2.4
	c-15.6,23.4-29.1,47.9-39.8,73.9c-9.6,23.3-17.1,47.3-22.3,72c-4.7,22.6-7.9,45.3-8.6,68.4c-0.1,3.1-0.5,6.3-0.7,9.4
	c-0.8,10.6-0.4,21.1,4.1,31c0.9,1.9,3.5,4.5,5.1,4.4c2.2-0.2,5-2.2,6.1-4.3c2.6-5,4.7-10.3,6.5-15.7c5.6-17.2,11.6-34.2,16.2-51.7
	c5.9-22.2,10.8-44.6,15.7-67c3-13.8,5.3-27.9,7.9-41.8c1.8-9.7,3.5-19.5,5.2-29.2c1.7-10,3.4-20,4.8-30.1
	C1282.6,171,1283.1,164.2,1284,156.1z"/>
<path d="M291.8,645.7c9.3,4.9,18.4,10.2,27.9,14.6c12.3,5.7,25,10.5,37.5,16c6,2.6,9,7.4,8,12.7c-0.7,3.8-6.1,11.9-11.5,13.3
	c-5.6,1.4-10.5-0.6-15.5-2.6c-28.6-11.8-55.4-27-82.4-42c-37.5-20.9-75.1-41.4-113.2-61.1c-19.8-10.2-41.1-17.5-63.5-23.4
	c4.3,14.3,8.3,27.9,12.4,41.6c3.9,13.1,7.8,26.3,11.9,39.4c2.9,9.3-5,17.6-13,19c-8.4,1.5-10.2-1.8-13.3-7.7
	c-5.8-11-11.4-22.1-17.1-33.1c-11.4-21.9-22.9-43.7-34.4-65.6c-7.7-14.6-15.3-29.3-22.9-43.9c-3.5-6.8-3.9-16.9,2-20.3
	c3.4-2,7.3-3.1,10.1-4.2c-0.7-5.2-2.3-11.1-1.9-16.8c0.7-8.3,8.1-9.2,14.6-10.3c17-3,34-6.2,51.1-8.9c8.6-1.3,17.4-1.7,26.1-2.1
	c18.9-0.8,37.7-2.2,56.6-1.8c19.4,0.4,39.1,1.1,57.5,8.7c11,4.5,20.9,11,25.4,22.1c7.2,17.7,5.6,35.2-6.2,50.8
	c-15,19.8-35.6,31.2-59.4,37.2c-2,0.5-4,1-7.5,1.8c38.7,21,76.2,41.4,114.1,62c-3.8-8.7-3.2-17.5-2-26.5c0.9-6.7,0.5-13.6,1.2-20.3
	c1.8-17.1,3.7-34.2,5.9-51.3c3.8-29.3,11.3-57.9,20.6-85.9c4.1-12.2,8.8-24.1,13.1-36.2c2.3-6.5,9.1-9.5,13.9-8.7
	c6.9,1.2,13.5,7.3,14.4,13.6c2.1,15.4,3.8,30.9,6.1,46.3c2.6,17.3,5.8,34.5,8.8,51.7c2.8,16.3,5.4,32.6,8.2,48.9
	c0.6,3.9,1,7.9,2.3,11.5c0.6,1.7,3.1,3.5,4.9,3.8c5.9,0.8,12,0.6,17.9,1.2c10.9,1.2,21.8,2.3,32.7,4.1c8.6,1.4,12.5,11.5,7.8,19
	c-5.5,8.8-8.8,9.9-19.3,8.1c-9.2-1.5-18.6-2.2-27.9-3.2c-2.9-0.3-5.8-0.7-9.8-1.2c1.3,6.7,2.3,12.7,3.6,18.7
	c5.5,24.4,11.2,48.7,16.6,73c1.3,5.9,0,11.4-5,15.1c-4.4,3.1-9.4,5.6-15,3.3c-3.9-1.5-6-4.5-6.8-8.8c-1.4-7.3-3.4-14.6-5.2-21.8
	c-2.3-9.5-4.7-18.9-6.7-28.5c-3.5-16.7-6.6-33.6-10.1-50.3c-0.3-1.3-1.9-3.3-3.1-3.4c-11.9-0.9-23.8-1.4-35.6-2.2
	c-4.3-0.3-5.6,1.4-5.3,5.5c0.3,3.5-0.1,7,0.1,10.5c0.7,11.3-6.9,16.4-16.6,17.1c-0.8,0.1-1.7,0-2.5,0
	C292.1,644.8,291.9,645.2,291.8,645.7z M48.2,496.4c6,14.3,11.4,27.8,17.3,41.1c0.9,2,3.4,4.2,5.6,4.7c10.5,2.4,21.2,4,31.7,6.5
	c20,4.7,40.2,6.4,60.5,2.7c20-3.7,37.8-11.6,50.6-28.1c8.2-10.7,9.5-16.8-1.2-25.7c-4-3.3-9.3-6-14.3-6.9c-10.1-1.8-20.5-3-30.8-3.1
	c-18.1-0.2-36.2,0.1-54.3,1c-14.1,0.7-28.2,2.3-42.2,4C63.4,493.3,55.9,495,48.2,496.4z M333.1,489.4c-0.4,0-0.9,0-1.3,0
	c-9.3,30.5-15.3,61.7-18.1,94.2c11.4,0,22.7,0,33.9,0C342.8,552.3,337.9,520.8,333.1,489.4z"/>
<path d="M434.9,436.3c-1-6.5-1.9-12.2-2.6-18c-0.8-6.3,3.3-12.5,11.6-14.1c13.8-2.6,27.4-5.9,41.3-7.8c29.3-4.1,58.4-4.4,85.3,10.8
	c13.4,7.6,25.3,17.4,32.4,30.8c9.2,17.4,16.2,35.8,17.6,56.1c3,42.7-8.4,81-33.8,115c-31,41.7-73,67.6-122.1,83.1
	c-3.6,1.1-7.1,3.5-10.6,3.3c-3.7-0.2-8.1-1.8-10.9-4.3c-8.6-7.9-5.6-20.4,5.4-24.2c9.8-3.4,19.6-6.9,29.9-10.4
	c-3.5-10.8-7-21.4-10.5-32c-9.7-29.7-19.4-59.4-29-89.1c-7.6-23.5-15.2-47.1-22.8-70.6c-1.2-3.7-2.6-7.4-3.6-11.1
	c-3-10.7,8.1-21.1,19.4-18.3C432.8,435.8,433.7,436,434.9,436.3z M463.5,429c0.4,2.4,0.5,4.1,0.9,5.7c6.6,27.6,13.4,55.1,19.8,82.8
	c5.9,25.3,11.7,50.6,16.8,76c2.5,12.2,3.7,24.6,5.1,37c0.5,4.3-0.3,8.7-0.6,13.6c1.9-1,3.6-1.6,5-2.7c4.3-3.2,8.2-7,12.6-10
	c13.8-9.3,25.4-21,36.1-33.6c20.4-24,30.5-52.2,32.8-83.3c1.2-16.3-1.3-32.3-6.8-47.9c-3.2-9.1-7.2-17.7-14.5-24
	c-15.4-13.2-33.9-18.3-53.6-19.1c-7.6-0.3-15.3,0.1-22.8,1C484,425.5,473.7,427.4,463.5,429z"/>
<path d="M1456.2,302.7c-1.5,10.1-3.4,19.5-4.2,28.9c-1,10.9-0.9,21.8,5.6,31.5c3.1,4.6,7,7.4,12.5,8.8c9.1,2.3,18,5.7,27.1,7.8
	c10.8,2.5,21.8,2.1,32.9,1.1c16.6-1.5,32.6-5.2,47.9-11.4c13.1-5.3,25.7-12.1,38.5-18.2c11.7-5.5,20.8,1.4,23.1,11.8
	c1.3,6.2-3.6,9.7-7.8,12.3c-17.7,11.3-36.9,19.8-57,25.9c-19.9,6.1-40.4,9.3-61.3,8.2c-24.1-1.3-47.4-4.8-68.3-18.7
	c-12.6-8.4-18.8-19.6-20.4-33.9c-0.8-7.2-1-14.5-1-21.8c-0.1-17.5,2.9-34.6,6.6-51.6c2.2-10.1,4.6-20.4,8.6-29.9
	c5.4-12.9,12.1-25.2,21.8-35.6c14-14.9,31.7-23.4,50-31.6c17.7-8,36.4-11.8,55.1-14.4c21-3,42.4-3.8,62.2,6.8
	c9.7,5.2,18.3,11.7,23.2,22c8.1,17.1,3.9,39.7-8.8,53.8c-18.2,20.2-42.1,30.3-66.9,39c-17.5,6.1-35.5,10.3-54.1,11.1
	c-11.8,0.5-23.6,1.1-35.3,0.9c-8.3-0.2-16.6-1.8-25-2.8C1459.5,302.5,1457.9,302.7,1456.2,302.7z M1462.1,275.3
	c12.3,0.8,24.2,1.8,36.2,2.2c5.6,0.2,11.2-0.5,16.8-0.9c7-0.6,14.1-1,21-2.2c16-2.9,31.8-7.2,46.6-13.9
	c14.6-6.6,29.3-13.6,38.9-27.3c8.9-12.7,8.9-18.1-3.4-26.7c-5.7-4-13.6-6.2-20.6-6.6c-11-0.6-22.1,0.5-33.1,1.8
	c-16.8,2-32.9,6.7-48.6,12.8c-12.5,4.9-24.2,11.3-33.5,21C1472.1,246.4,1465.6,259.5,1462.1,275.3z"/>
<path d="M1721.9,312.4c-6,0.9-12,1.8-18,2.6c-7.2,0.9-14.3,2-21.5,2.5c-18,1.3-35.9,2.2-53.9,3.5c-7.9,0.6-15.1-5.2-15.7-13.3
	c-0.6-7.7,5.7-14.7,13.7-15.2c12.5-0.7,25-0.8,37.4-2.1c17.2-1.8,34.5-4.1,51.6-6.8c14-2.2,27.8-5.4,41.8-7.9
	c10.2-1.8,16.5,2,19.8,10.3c2,5-0.3,8.4-2.9,11.6c-4.5,5.7-9.5,11.1-14.4,16.5c-16.4,18.5-32.8,36.9-49.3,55.3
	c-10,11.1-20.1,22.1-30.1,33.2c-16.2,18-32,36.4-48.5,54.2c-14,15.1-29.9,28-46.9,39.8c-1.2,0.8-2.2,1.8-3.3,2.7
	c0.1,0.4,0.2,0.9,0.3,1.3c1.5,0,3,0.1,4.5,0c10.2-0.6,20.5-1.1,30.6-2.1c9.2-0.9,18.3-2.6,27.4-3.7c8-0.9,16.1-1.3,24.1-2.2
	c13.3-1.5,26.7-3.2,40-4.8c11.6-1.4,23.1-2.5,34.7-4.2c7-1,12.9,5.3,14.5,12.1c1.2,5.1-3.7,13.2-9.8,14.9c-7,1.9-14.3,3-21.6,4.1
	c-11.8,1.8-23.7,3.4-35.6,4.8c-10,1.2-19.9,2.3-29.9,3.2c-16.4,1.4-32.8,2.7-49.3,4c-5.6,0.4-11.2,0.7-16.8,1
	c-10.9,0.7-21.8,2-32.7,1.8c-12-0.2-23.8-1.8-35.3-6.2c-6-2.3-11.7-4.4-16.4-9.3c-4.8-5-5.1-10.5-3.1-16.2c2-6,7.2-8.8,13.3-9.1
	c22.4-1.1,41.8-10,59-23.6c10.1-8,19.8-16.5,28.7-25.8c15.1-15.5,29.5-31.7,44-47.8c9.8-10.8,19.3-21.9,28.9-32.8
	c5.8-6.6,11.6-13.1,17.5-19.5c8-8.5,16.1-16.9,24.1-25.3C1722.5,313.4,1722.2,312.9,1721.9,312.4z"/>
<path d="M1359.8,269.6c4.6-6.5,9.6-12.7,13.7-19.4c16.5-27.5,39-49.9,62.1-71.5c22.4-20.9,46.8-39.4,73.8-54.2c9-5,20.7,0.4,22,12.9
	c0.3,3.2-3.2,8-6.3,10.3c-10.4,7.7-21.6,14.3-31.9,22.1c-12,9-23.7,18.4-35,28.2c-9.5,8.3-18.6,17.1-27.3,26.3
	c-22.3,23.5-41.7,49.3-57.6,77.7c-8.4,15-15.9,30.6-23.2,46.1c-4.6,9.8-18.3,14.4-24.1,5.8c-2.5-3.8-3-9.6-2.9-14.4
	c0.3-8.2,2-16.3,2.7-24.5c1.5-18.1,2.6-36.3,4.1-54.5c1.2-14.1,2.7-28.1,3.9-42.2c1.4-15.9,2.7-31.8,4-47.7c1-12.6,2-25.3,3-37.9
	c0.6-6.7,1.2-13.4,2-20.1c0.8-7.1,7.3-11.4,16.2-10.9c6.8,0.4,13,6,12.7,12.4c-0.3,7.4-1.2,14.7-2,22.1c-0.6,6.4-1.4,12.7-1.9,19.1
	c-0.8,10.7-1.2,21.4-2.1,32.1c-1.5,16.9-3.3,33.7-4.9,50.6c-0.9,10.4-1.5,20.8-2.3,31.2C1359,269.3,1359.4,269.4,1359.8,269.6z"/>
<path d="M814.4,527.8c-0.2,28.3-6.9,55.2-17.2,81.3c-3.8,9.7-8.6,19.1-14.1,27.9c-6.7,10.6-16.8,17-29.6,18.1
	c-2.1,0.2-4.2-0.4-6.3-0.9c-6.7-1.6-13.5-2.9-19.9-5.2c-4.5-1.6-6.1-6.3-6.8-10.7c-2.8-17.1-6.6-34.2-6.2-51.7
	c0.1-6.1-1.1-12.2-0.8-18.3c1.1-27.6,4.3-54.8,12.8-81.2c3.7-11.6,6.4-23.6,14-33.6c11.3-14.6,23.6-19.7,37.4-14.8
	c11.4,4.1,18.8,13.1,22.7,24.7c2.8,8.3,6.8,16.4,8.7,24.9c2.9,12.9,4.5,26.2,6.6,39.3C815.3,527.7,814.8,527.8,814.4,527.8z
	 M741.5,572.4c1.3,14.5,2.4,28.9,4,43.3c0.3,2.8,2.2,5.8,4.1,8.1c3.7,4.5,6.3,4.2,8.9-1.3c5.2-11.1,10.3-22.1,14.8-33.5
	c5.7-14.6,10.4-29.6,11-45.5c0.4-11.2,0.6-22.4-0.1-33.6c-0.5-6.9-4-13.5-4.2-20.4c-0.2-8.2-4.7-14.1-8.4-20.4
	c-2.6-4.4-5.2-4-7.5,0.5c-2.4,4.8-5,9.7-6.7,14.7C747.4,513,742.2,542.2,741.5,572.4z"/>
<path d="M670.2,418.3c11.2,0.4,16.7,7,16.9,16.3c0.1,4.3-1.4,8.6-1.9,12.9c-1.1,8.6-2,17.3-2.9,25.9c-1.4,12.9-2.7,25.8-3.9,38.7
	c-0.8,8.5-1.4,17.1-2.1,25.6c-1.3,14.6-2.6,29.2-3.9,43.7c-0.4,4.8-0.7,9.5-1.1,14.3c-1.3,16.1-2.7,32.2-3.9,48.2
	c-0.8,11-1.4,22.1-2.1,33.1c-0.3,4.8-0.3,9.6-1.2,14.3c-1.4,7.1-9.6,12.1-18.2,10.8c-5.4-0.8-10.2-8.5-9.8-15.2
	c0.8-12.7,1.4-25.4,2.3-38c1.2-17.2,2.6-34.5,4-51.7c1-12.1,1.9-24.3,3-36.4c1.6-16.5,3.4-33,4.9-49.5c0.9-9.5,1.2-19.1,2.1-28.6
	c1.1-11.7,2.6-23.5,3.9-35.2c0.7-6.7,1-13.4,2.1-20C659.3,421.4,663.7,418.3,670.2,418.3z"/>
<path d="M1821.4,305.5c10.9,1.1,16.5,7.8,15.4,18c-4.8,44.1-16,86.9-26.8,129.8c-4.7,18.7-8.4,37.6-12.1,56.5
	c-1.6,8.3-1.9,16.9-3.2,25.4c-1.2,7.5-9.4,13.6-16.5,12.4c-7.2-1.2-12.1-7.8-11.4-16.6c0.8-9.9,2.1-19.9,3.9-29.7
	c3.4-17.7,7.1-35.5,11.2-53.1c6.7-28.5,14.1-56.8,20.5-85.4c2.5-11.1,2.6-22.8,4.4-34.1c1-6.1-0.5-13.2,5.2-17.8
	C1814.9,308.7,1818.3,307.3,1821.4,305.5z"/>
<path d="M1830.3,258.6c8.6-1,14.5,5.7,14.4,15.2c0,5.7-9.2,14.8-14.8,14.8c-7.5-0.1-14.2-7.2-14.2-15.2
	C1815.8,265.9,1820.9,257.5,1830.3,258.6z"/>
</svg>
