<?xml version="1.0" encoding="utf-8"?>
<!-- Generator: Adobe Illustrator 16.0.4, SVG Export Plug-In . SVG Version: 6.00 Build 0)  -->
<!DOCTYPE svg PUBLIC "-//W3C//DTD SVG 1.1//EN" "http://www.w3.org/Graphics/SVG/1.1/DTD/svg11.dtd">
<svg version="1.1" id="Layer_1" xmlns="http://www.w3.org/2000/svg" xmlns:xlink="http://www.w3.org/1999/xlink" x="0px" y="0px"
	 width="566.93px" height="850.391px" viewBox="0 0 566.93 850.391" enable-background="new 0 0 566.93 850.391"
	 xml:space="preserve">
<g enable-background="new    ">
	<path d="M530.469,521.925v74.9H492.72v37.749h-37.15v37.15H380.67v37.749H190.125v-37.749h-74.9v-37.15H77.476v-37.749h-37.15
		v-74.9H2.576V331.38h37.75v-74.9h37.15v-37.15h37.749v-37.75h74.9v-37.15H380.67v37.15h74.899v37.75h37.15v37.15h37.749v74.9h37.15
		v190.544H530.469z M526.874,334.976h-37.15v-74.9h-37.749v-37.75h-74.9v-37.15H193.121v37.15h-74.9v37.75h-37.15v74.9H43.322
		v183.953h37.749v74.9h37.15v37.15h74.9v37.749h183.953v-37.749h74.9v-37.15h37.749v-74.9h37.15V334.976z M115.225,372.126V294.23
		h77.896v77.896H115.225z M417.82,484.774v37.15h-37.15v35.952v38.948h-37.75v37.749H227.275v-37.749h-37.15v-37.15h-37.75v-37.75
		h-37.15V481.18h40.746v37.749h221.104V481.18h37.75v-37.15h40.745v40.745H417.82z M190.125,447.025V406.28h77.896v40.746H190.125z
		 M339.924,559.675h-71.903v34.154h71.903V559.675z M302.175,372.126V331.38H417.82v40.746H302.175z"/>
</g>
</svg>
