<?xml version="1.0" encoding="utf-8"?>
<!-- Generator: Adobe Illustrator 16.0.4, SVG Export Plug-In . SVG Version: 6.00 Build 0)  -->
<!DOCTYPE svg PUBLIC "-//W3C//DTD SVG 1.1//EN" "http://www.w3.org/Graphics/SVG/1.1/DTD/svg11.dtd">
<svg version="1.1" id="Layer_1" xmlns="http://www.w3.org/2000/svg" xmlns:xlink="http://www.w3.org/1999/xlink" x="0px" y="0px"
	 width="566.93px" height="850.391px" viewBox="0 0 566.93 850.391" enable-background="new 0 0 566.93 850.391"
	 xml:space="preserve">
<g enable-background="new    ">
	<path d="M530.469,557.647v37.749H492.72v37.15h-37.15v37.749H380.67v37.15H190.125v-37.15h-74.9v-37.749H77.476v-37.15h-37.15
		v-74.899H2.576V329.952h37.75v-74.9h37.15v-37.75h37.749v-37.15h74.9v-37.75H380.67v37.75h74.899v40.745H342.92v37.15h-74.899
		v71.904h37.75v37.15h37.149v40.746h-37.149v37.749h-37.75v34.154h37.75v37.15h74.899v37.75h146.204v-37.75h40.745v40.746H530.469z
		 M451.975,595.396h-74.9v-37.749h-74.899v-37.15h-34.154v37.15h-37.15v37.749h-40.746v-40.745h37.15v-37.75h37.749v-34.154h-37.749
		v-40.745h37.749v-37.15h37.15v-34.154h-37.15v-37.749h-37.749v-77.896h37.749v-37.75h74.899v-34.154H193.121v37.75h-74.9v37.15
		h-37.15v74.9H43.322v183.953h37.749v74.9h37.15v37.749h74.9v37.15h183.953v-37.15h74.9V595.396z M115.225,370.697v-40.745h37.15
		v-37.75h40.746v78.495H115.225z"/>
</g>
</svg>
